<mxfile host="app.diagrams.net" modified="2022-02-17T18:01:39.743Z" agent="5.0 (Windows NT 10.0; Win64; x64) AppleWebKit/537.36 (KHTML, like Gecko) Chrome/98.0.4758.102 Safari/537.36" etag="NrmQaW8OOFURhKvwy0Kn" version="16.5.6" type="github">
  <diagram id="C5RBs43oDa-KdzZeNtuy" name="Page-1">
    <mxGraphModel dx="1038" dy="585" grid="1" gridSize="10" guides="1" tooltips="1" connect="1" arrows="1" fold="1" page="1" pageScale="1" pageWidth="827" pageHeight="1169" math="0" shadow="0">
      <root>
        <mxCell id="WIyWlLk6GJQsqaUBKTNV-0" />
        <mxCell id="WIyWlLk6GJQsqaUBKTNV-1" parent="WIyWlLk6GJQsqaUBKTNV-0" />
        <mxCell id="Os6jaey__ldA9dEvAGC6-1" style="edgeStyle=orthogonalEdgeStyle;rounded=0;orthogonalLoop=1;jettySize=auto;html=1;fontSize=18;" parent="WIyWlLk6GJQsqaUBKTNV-1" source="Os6jaey__ldA9dEvAGC6-0" edge="1">
          <mxGeometry relative="1" as="geometry">
            <mxPoint x="390" y="140" as="targetPoint" />
          </mxGeometry>
        </mxCell>
        <mxCell id="Os6jaey__ldA9dEvAGC6-0" value="&lt;font style=&quot;font-size: 18px&quot;&gt;START&lt;/font&gt;" style="ellipse;whiteSpace=wrap;html=1;" parent="WIyWlLk6GJQsqaUBKTNV-1" vertex="1">
          <mxGeometry x="330" y="30" width="120" height="70" as="geometry" />
        </mxCell>
        <mxCell id="Os6jaey__ldA9dEvAGC6-4" style="edgeStyle=orthogonalEdgeStyle;rounded=0;orthogonalLoop=1;jettySize=auto;html=1;fontSize=18;" parent="WIyWlLk6GJQsqaUBKTNV-1" source="Os6jaey__ldA9dEvAGC6-2" edge="1">
          <mxGeometry relative="1" as="geometry">
            <mxPoint x="390" y="240" as="targetPoint" />
          </mxGeometry>
        </mxCell>
        <mxCell id="Os6jaey__ldA9dEvAGC6-2" value="What are the fields you want to filter your search by?" style="rounded=1;whiteSpace=wrap;html=1;fontSize=18;" parent="WIyWlLk6GJQsqaUBKTNV-1" vertex="1">
          <mxGeometry x="215" y="140" width="350" height="60" as="geometry" />
        </mxCell>
        <mxCell id="Os6jaey__ldA9dEvAGC6-11" style="edgeStyle=orthogonalEdgeStyle;rounded=0;orthogonalLoop=1;jettySize=auto;html=1;fontSize=18;" parent="WIyWlLk6GJQsqaUBKTNV-1" source="Os6jaey__ldA9dEvAGC6-5" edge="1">
          <mxGeometry relative="1" as="geometry">
            <mxPoint x="390" y="360" as="targetPoint" />
          </mxGeometry>
        </mxCell>
        <mxCell id="Os6jaey__ldA9dEvAGC6-5" value="list=[&#39;Aadhar Number&#39;, &#39;First Name&#39;, &#39;Last Name&#39;, &#39;Minimum Age&#39;, &#39;Maximum Age&#39;, &#39;Gender&#39;, &#39;Vaccine Type&#39;, &#39;State&#39;, &#39;District&#39;, &#39;Pincode&#39;]" style="rounded=1;whiteSpace=wrap;html=1;fontSize=18;" parent="WIyWlLk6GJQsqaUBKTNV-1" vertex="1">
          <mxGeometry x="150" y="240" width="480" height="80" as="geometry" />
        </mxCell>
        <mxCell id="Os6jaey__ldA9dEvAGC6-12" style="edgeStyle=orthogonalEdgeStyle;rounded=0;orthogonalLoop=1;jettySize=auto;html=1;fontSize=18;" parent="WIyWlLk6GJQsqaUBKTNV-1" source="Os6jaey__ldA9dEvAGC6-7" edge="1">
          <mxGeometry relative="1" as="geometry">
            <mxPoint x="395" y="510" as="targetPoint" />
          </mxGeometry>
        </mxCell>
        <mxCell id="Os6jaey__ldA9dEvAGC6-7" value="&lt;div&gt;cursor.execute(&#39;SELECT name FROM vaccines&#39;)&lt;/div&gt;&lt;div&gt;&amp;nbsp; &amp;nbsp; result=cursor.fetchall()&lt;/div&gt;&lt;div&gt;options=[]&lt;br&gt;&lt;/div&gt;" style="rounded=1;whiteSpace=wrap;html=1;fontSize=18;" parent="WIyWlLk6GJQsqaUBKTNV-1" vertex="1">
          <mxGeometry x="150" y="360" width="490" height="100" as="geometry" />
        </mxCell>
        <mxCell id="Os6jaey__ldA9dEvAGC6-14" style="edgeStyle=orthogonalEdgeStyle;rounded=0;orthogonalLoop=1;jettySize=auto;html=1;fontSize=18;" parent="WIyWlLk6GJQsqaUBKTNV-1" source="Os6jaey__ldA9dEvAGC6-13" edge="1">
          <mxGeometry relative="1" as="geometry">
            <mxPoint x="395" y="620" as="targetPoint" />
          </mxGeometry>
        </mxCell>
        <mxCell id="Os6jaey__ldA9dEvAGC6-13" value="&lt;div&gt;for item in result:&lt;/div&gt;&lt;div&gt;&amp;nbsp; &amp;nbsp; &amp;nbsp; &amp;nbsp; &amp;nbsp; &amp;nbsp; &amp;nbsp; &amp;nbsp;options.append(item[0])&lt;/div&gt;" style="rounded=1;whiteSpace=wrap;html=1;fontSize=18;" parent="WIyWlLk6GJQsqaUBKTNV-1" vertex="1">
          <mxGeometry x="235" y="510" width="320" height="70" as="geometry" />
        </mxCell>
        <mxCell id="Os6jaey__ldA9dEvAGC6-15" value="STOP" style="ellipse;whiteSpace=wrap;html=1;fontSize=18;" parent="WIyWlLk6GJQsqaUBKTNV-1" vertex="1">
          <mxGeometry x="335" y="710" width="120" height="70" as="geometry" />
        </mxCell>
        <mxCell id="rjK7qP9WURT3o5a7tT-N-1" value="" style="edgeStyle=orthogonalEdgeStyle;rounded=0;orthogonalLoop=1;jettySize=auto;html=1;" edge="1" parent="WIyWlLk6GJQsqaUBKTNV-1" source="rjK7qP9WURT3o5a7tT-N-0" target="Os6jaey__ldA9dEvAGC6-15">
          <mxGeometry relative="1" as="geometry" />
        </mxCell>
        <mxCell id="rjK7qP9WURT3o5a7tT-N-0" value="&lt;span style=&quot;font-size: 18px&quot;&gt;display the data according to the filter conditions&lt;/span&gt;" style="rounded=1;whiteSpace=wrap;html=1;" vertex="1" parent="WIyWlLk6GJQsqaUBKTNV-1">
          <mxGeometry x="235" y="620" width="320" height="60" as="geometry" />
        </mxCell>
      </root>
    </mxGraphModel>
  </diagram>
</mxfile>
